<svg xmlns="http://www.w3.org/2000/svg" xmlns:xlink="http://www.w3.org/1999/xlink" width="40" zoomAndPan="magnify" viewBox="0 0 30 30.000001" height="40" preserveAspectRatio="xMidYMid meet" version="1.0"><defs><clipPath id="b14458e02a"><path d="M 4.855469 0 L 25.179688 0 L 25.179688 29.03125 L 4.855469 29.03125 Z M 4.855469 0 " clip-rule="nonzero"/></clipPath></defs><g clip-path="url(#b14458e02a)"><path fill="#07afea" d="M 20.296875 7.84375 C 18.539062 5.230469 16.777344 2.613281 15.019531 0 C 13.257812 2.613281 11.5 5.230469 9.738281 7.84375 C 7.425781 11.277344 4.695312 14.414062 4.863281 18.828125 C 5.074219 24.359375 9.625 29 15.019531 29.03125 C 20.410156 29 24.964844 24.359375 25.171875 18.828125 C 25.339844 14.414062 22.609375 11.277344 20.296875 7.84375 " fill-opacity="1" fill-rule="nonzero"/></g><path fill="#a4e3ff" d="M 20.761719 11.0625 C 21.5 12.503906 21.984375 14.042969 21.917969 15.828125 C 21.738281 20.578125 17.832031 24.5625 13.203125 24.585938 C 10.851562 24.574219 8.691406 23.542969 7.105469 21.90625 C 8.371094 25.3125 11.585938 27.820312 15.257812 27.84375 C 19.886719 27.816406 23.792969 23.832031 23.972656 19.082031 C 24.09375 15.90625 22.464844 13.496094 20.761719 11.0625 " fill-opacity="1" fill-rule="nonzero"/></svg>